<svg xmlns="http://www.w3.org/2000/svg" version="1.1" xmlns:xlink="http://www.w3.org/1999/xlink" viewBox="0 0 200 200" width="200" height="200"><metadata><rdf:RDF xmlns:rdf="http://www.w3.org/1999/02/22-rdf-syntax-ns#" xmlns:dc="http://purl.org/dc/elements/1.1/"><rdf:Description><dc:creator>RealFaviconGenerator</dc:creator><dc:source>https://realfavicongenerator.net</dc:source></rdf:Description></rdf:RDF></metadata><rect width="200" height="200" fill="url('#gradient')"></rect><defs><linearGradient id="gradient" gradientTransform="rotate(45 0.5 0.5)"><stop offset="0%" stop-color="#877886"></stop><stop offset="100%" stop-color="#41373f"></stop></linearGradient></defs><g><g fill="#fcf8f4" transform="matrix(1.1030006295026928,0,0,1.1030006295026928,21.95483897961195,108.1699461964633)" stroke="#eeebe9" stroke-width="0.2"><path d="M7.37-10.64L7.31-7.59L6.23-7.67Q4.68-7.67 4.24-6.69L4.24-6.69L4.24 0L0.95 0L0.95-10.57L4.03-10.57L4.14-9.21Q4.97-10.76 6.46-10.76L6.46-10.76Q6.98-10.76 7.37-10.64L7.37-10.64ZM11.97-10.57L11.97 0L8.67 0L8.67-10.57L11.97-10.57ZM8.48-13.29L8.48-13.29Q8.48-13.99 8.98-14.44Q9.49-14.89 10.30-14.89Q11.11-14.89 11.62-14.44Q12.13-13.99 12.13-13.29Q12.13-12.59 11.62-12.14Q11.11-11.69 10.30-11.69Q9.49-11.69 8.98-12.14Q8.48-12.59 8.48-13.29ZM20.55 0L18.24-3.94L17.31-3.01L17.31 0L14.02 0L14.02-15.01L17.31-15.01L17.31-7.04L17.65-7.48L20.13-10.57L24.07-10.57L20.37-6.22L24.32 0L20.55 0ZM34.18 0L30.89 0Q30.71-0.32 30.58-0.95L30.58-0.95Q29.67 0.20 28.04 0.20L28.04 0.20Q26.54 0.20 25.50-0.71Q24.45-1.61 24.45-2.98L24.45-2.98Q24.45-4.70 25.72-5.58Q26.99-6.46 29.41-6.46L29.41-6.46L30.43-6.46L30.43-7.01Q30.43-8.47 29.17-8.47L29.17-8.47Q28.00-8.47 28.00-7.31L28.00-7.31L24.71-7.31Q24.71-8.85 26.01-9.80Q27.31-10.76 29.34-10.76Q31.36-10.76 32.53-9.78Q33.70-8.79 33.73-7.07L33.73-7.07L33.73-2.39Q33.75-0.94 34.18-0.17L34.18-0.17L34.18 0ZM28.83-2.15L28.83-2.15Q29.44-2.15 29.85-2.41Q30.25-2.68 30.43-3.01L30.43-3.01L30.43-4.70L29.47-4.70Q27.75-4.70 27.75-3.15L27.75-3.15Q27.75-2.71 28.06-2.43Q28.36-2.15 28.83-2.15ZM39.13-14.22L39.13-2.64L45.10-2.64L45.10 0L35.70 0L35.70-14.22L39.13-14.22ZM55.63 0L54.80-2.66L50.11-2.66L49.29 0L45.63 0L50.84-14.22L54.06-14.22L59.32 0L55.63 0ZM52.45-10.23L50.93-5.30L53.98-5.30L52.45-10.23ZM65.03 0L60.35 0L60.35-14.22L64.93-14.22Q66.82-14.22 68.32-13.36Q69.82-12.51 70.67-10.95Q71.51-9.39 71.52-7.46L71.52-7.46L71.52-6.81Q71.52-4.85 70.70-3.31Q69.87-1.76 68.37-0.88Q66.88-0.01 65.03 0L65.03 0ZM64.93-11.57L63.78-11.57L63.78-2.64L64.97-2.64Q66.45-2.64 67.24-3.69Q68.03-4.74 68.03-6.81L68.03-6.81L68.03-7.42Q68.03-9.48 67.24-10.53Q66.45-11.57 64.93-11.57L64.93-11.57ZM80.62-3.78L80.62-3.78Q80.62-4.53 80.08-4.95Q79.55-5.37 78.21-5.82Q76.88-6.27 76.03-6.69L76.03-6.69Q73.26-8.05 73.26-10.42L73.26-10.42Q73.26-11.60 73.95-12.50Q74.64-13.41 75.90-13.91Q77.16-14.41 78.73-14.41L78.73-14.41Q80.26-14.41 81.48-13.87Q82.70-13.32 83.37-12.31Q84.04-11.30 84.04-10L84.04-10L80.63-10Q80.63-10.87 80.09-11.35Q79.56-11.83 78.65-11.83L78.65-11.83Q77.73-11.83 77.20-11.42Q76.67-11.02 76.67-10.39L76.67-10.39Q76.67-9.84 77.26-9.40Q77.84-8.96 79.32-8.48Q80.79-8.01 81.74-7.46L81.74-7.46Q84.04-6.13 84.04-3.80L84.04-3.80Q84.04-1.93 82.64-0.87Q81.23 0.20 78.78 0.20L78.78 0.20Q77.05 0.20 75.65-0.42Q74.25-1.04 73.54-2.12Q72.83-3.20 72.83-4.61L72.83-4.61L76.27-4.61Q76.27-3.47 76.86-2.92Q77.45-2.38 78.78-2.38L78.78-2.38Q79.63-2.38 80.12-2.75Q80.62-3.12 80.62-3.78ZM91.18-2.97L91.18-2.97Q91.18-3.39 90.74-3.64Q90.30-3.90 89.07-4.17Q87.84-4.44 87.04-4.89Q86.24-5.33 85.82-5.97Q85.40-6.60 85.40-7.42L85.40-7.42Q85.40-8.88 86.60-9.82Q87.80-10.76 89.75-10.76L89.75-10.76Q91.84-10.76 93.11-9.81Q94.38-8.87 94.38-7.32L94.38-7.32L91.07-7.32Q91.07-8.59 89.74-8.59L89.74-8.59Q89.22-8.59 88.87-8.31Q88.52-8.02 88.52-7.59L88.52-7.59Q88.52-7.15 88.95-6.88Q89.38-6.60 90.32-6.43Q91.26-6.25 91.97-6.01L91.97-6.01Q94.36-5.19 94.36-3.07L94.36-3.07Q94.36-1.62 93.07-0.71Q91.79 0.20 89.75 0.20L89.75 0.20Q88.39 0.20 87.32-0.29Q86.26-0.78 85.66-1.62Q85.07-2.46 85.07-3.39L85.07-3.39L88.14-3.39Q88.16-2.66 88.63-2.32Q89.10-1.98 89.83-1.98L89.83-1.98Q90.51-1.98 90.84-2.26Q91.18-2.53 91.18-2.97ZM96.44-13.19L99.73-13.19L99.73-10.57L101.46-10.57L101.46-8.28L99.73-8.28L99.73-3.45Q99.73-2.85 99.94-2.62Q100.16-2.38 100.79-2.38L100.79-2.38Q101.28-2.38 101.61-2.44L101.61-2.44L101.61-0.09Q100.72 0.20 99.76 0.20L99.76 0.20Q98.06 0.20 97.25-0.61Q96.44-1.41 96.44-3.04L96.44-3.04L96.44-8.28L95.09-8.28L95.09-10.57L96.44-10.57L96.44-13.19ZM109.15 0L109.05-1.14Q108.01 0.20 106.23 0.20L106.23 0.20Q104.49 0.20 103.60-0.82Q102.71-1.83 102.71-3.72L102.71-3.72L102.71-10.57L106.00-10.57L106.00-3.70Q106.00-2.34 107.31-2.34L107.31-2.34Q108.45-2.34 108.93-3.15L108.93-3.15L108.93-10.57L112.24-10.57L112.24 0L109.15 0ZM113.62-5.36L113.62-5.36Q113.62-7.87 114.71-9.32Q115.79-10.76 117.73-10.76L117.73-10.76Q119.15-10.76 120.12-9.65L120.12-9.65L120.12-15L123.42-15L123.42 0L120.46 0L120.29-1.13Q119.28 0.20 117.71 0.20L117.71 0.20Q115.83 0.20 114.73-1.25Q113.62-2.70 113.62-5.36ZM116.92-5.76L116.91-5.16Q116.91-2.34 118.55-2.34L118.55-2.34Q119.65-2.34 120.12-3.26L120.12-3.26L120.12-7.29Q119.67-8.22 118.57-8.22L118.57-8.22Q117.05-8.22 116.92-5.76L116.92-5.76ZM128.76-10.57L128.76 0L125.46 0L125.46-10.57L128.76-10.57ZM125.26-13.29L125.26-13.29Q125.26-13.99 125.77-14.44Q126.28-14.89 127.09-14.89Q127.90-14.89 128.41-14.44Q128.92-13.99 128.92-13.29Q128.92-12.59 128.41-12.14Q127.90-11.69 127.09-11.69Q126.28-11.69 125.77-12.14Q125.26-12.59 125.26-13.29ZM130.38-4.82L130.37-5.38Q130.37-6.96 130.99-8.20Q131.60-9.43 132.75-10.10Q133.91-10.76 135.46-10.76L135.46-10.76Q137.83-10.76 139.20-9.29Q140.57-7.82 140.57-5.29L140.57-5.29L140.57-5.18Q140.57-2.71 139.19-1.25Q137.82 0.20 135.48 0.20L135.48 0.20Q133.22 0.20 131.86-1.16Q130.49-2.51 130.38-4.82L130.38-4.82ZM133.67-5.77L133.66-5.18Q133.66-3.71 134.12-3.03Q134.58-2.34 135.48-2.34L135.48-2.34Q137.24-2.34 137.28-5.05L137.28-5.05L137.28-5.38Q137.28-8.22 135.46-8.22L135.46-8.22Q133.81-8.22 133.67-5.77L133.67-5.77Z"></path></g></g></svg>